<?xml version="1.0" encoding="utf-8"?>
<!-- Generator: Adobe Illustrator 23.0.3, SVG Export Plug-In . SVG Version: 6.00 Build 0)  -->
<svg version="1.1" id="Слой_1" xmlns="http://www.w3.org/2000/svg" xmlns:xlink="http://www.w3.org/1999/xlink" x="0px" y="0px"
	 viewBox="0 0 16 16" enable-background="new 0 0 16 16" xml:space="preserve">
<g>
	<g>
		<path fill="#B8D1C8" d="M15.6,11.8l-2-2c-0.5-0.5-1.4-0.5-2,0l-0.9,0.9c-0.4,0.4-1.1,0.4-1.5,0L5.3,6.8c-0.4-0.4-0.4-1.1,0-1.5
			c0.1-0.1,0.6-0.6,0.9-0.9c0.5-0.5,0.6-1.4,0-2l-2-2c-0.5-0.5-1.4-0.5-2,0C1.8,0.8,1.7,0.9,1.5,1.1c-2,2-2,5.2,0,7.2l6.2,6.2
			c2,2,5.2,2,7.2,0l0.7-0.7C16.1,13.2,16.1,12.3,15.6,11.8z M2.9,1.1c0.2-0.2,0.5-0.2,0.7,0l2,2c0.2,0.2,0.2,0.5,0,0.7L5.2,4.1
			L2.5,1.4L2.9,1.1z M8.4,13.9L2.1,7.6C0.6,6.1,0.5,3.7,1.9,2.1l2.6,2.6c-0.7,0.8-0.7,2,0.1,2.7l3.9,3.9c0,0,0,0,0,0
			c0.8,0.8,2,0.8,2.7,0.1l2.6,2.6C12.3,15.5,9.9,15.4,8.4,13.9z M14.9,13.1l-0.3,0.3l-2.7-2.7l0.3-0.3c0.2-0.2,0.5-0.2,0.7,0l2,2
			C15.1,12.6,15.1,12.9,14.9,13.1z"/>
	</g>
</g>
</svg>
